<mxfile host="app.diagrams.net" modified="2022-03-07T16:14:34.300Z" agent="5.0 (Windows NT 10.0; Win64; x64) AppleWebKit/537.36 (KHTML, like Gecko) Chrome/99.0.4844.51 Safari/537.36" etag="jVaKdP2-UzuRCyipmYFI" version="16.6.7" type="github">
  <diagram id="R2lEEEUBdFMjLlhIrx00" name="Page-1">
    <mxGraphModel dx="2188" dy="1682" grid="1" gridSize="10" guides="1" tooltips="1" connect="1" arrows="1" fold="1" page="1" pageScale="1" pageWidth="850" pageHeight="1100" math="0" shadow="0" extFonts="Permanent Marker^https://fonts.googleapis.com/css?family=Permanent+Marker">
      <root>
        <mxCell id="0" />
        <mxCell id="1" parent="0" />
        <mxCell id="DIcptHTm6M0oIrfopCmu-1" value="students" style="rounded=0;whiteSpace=wrap;html=1;fillColor=#d5e8d4;strokeColor=#82b366;" vertex="1" parent="1">
          <mxGeometry x="620" y="130" width="90" height="40" as="geometry" />
        </mxCell>
        <mxCell id="DIcptHTm6M0oIrfopCmu-2" value="departments" style="rounded=0;whiteSpace=wrap;html=1;fillColor=#d5e8d4;strokeColor=#82b366;" vertex="1" parent="1">
          <mxGeometry x="270" y="140" width="105" height="40" as="geometry" />
        </mxCell>
        <mxCell id="DIcptHTm6M0oIrfopCmu-3" value="courses" style="rounded=0;whiteSpace=wrap;html=1;fillColor=#d5e8d4;strokeColor=#82b366;" vertex="1" parent="1">
          <mxGeometry x="620" y="350" width="100" height="40" as="geometry" />
        </mxCell>
        <mxCell id="DIcptHTm6M0oIrfopCmu-4" value="instructors" style="rounded=0;whiteSpace=wrap;html=1;fillColor=#d5e8d4;strokeColor=#82b366;" vertex="1" parent="1">
          <mxGeometry x="280" y="350" width="100" height="40" as="geometry" />
        </mxCell>
        <mxCell id="DIcptHTm6M0oIrfopCmu-5" value="questions" style="rounded=0;whiteSpace=wrap;html=1;fillColor=#d5e8d4;strokeColor=#82b366;" vertex="1" parent="1">
          <mxGeometry x="580" y="505" width="90" height="40" as="geometry" />
        </mxCell>
        <mxCell id="DIcptHTm6M0oIrfopCmu-7" value="grades" style="rounded=0;whiteSpace=wrap;html=1;fillColor=#d5e8d4;strokeColor=#82b366;" vertex="1" parent="1">
          <mxGeometry x="10" y="140" width="90" height="40" as="geometry" />
        </mxCell>
        <mxCell id="DIcptHTm6M0oIrfopCmu-8" value="exam" style="rounded=0;whiteSpace=wrap;html=1;fillColor=#d5e8d4;strokeColor=#82b366;" vertex="1" parent="1">
          <mxGeometry x="120" y="515" width="90" height="30" as="geometry" />
        </mxCell>
        <mxCell id="DIcptHTm6M0oIrfopCmu-9" value="account" style="rounded=0;whiteSpace=wrap;html=1;fillColor=#d5e8d4;strokeColor=#82b366;" vertex="1" parent="1">
          <mxGeometry x="820" y="250" width="100" height="30" as="geometry" />
        </mxCell>
        <mxCell id="DIcptHTm6M0oIrfopCmu-10" value="id" style="ellipse;whiteSpace=wrap;html=1;fillColor=#fff2cc;strokeColor=#d6b656;" vertex="1" parent="1">
          <mxGeometry x="530" y="65" width="70" height="30" as="geometry" />
        </mxCell>
        <mxCell id="DIcptHTm6M0oIrfopCmu-11" value="fname" style="ellipse;whiteSpace=wrap;html=1;fillColor=#fff2cc;strokeColor=#d6b656;" vertex="1" parent="1">
          <mxGeometry x="680.43" y="60" width="70" height="30" as="geometry" />
        </mxCell>
        <mxCell id="DIcptHTm6M0oIrfopCmu-12" value="lname" style="ellipse;whiteSpace=wrap;html=1;fillColor=#fff2cc;strokeColor=#d6b656;" vertex="1" parent="1">
          <mxGeometry x="760" y="60" width="70" height="30" as="geometry" />
        </mxCell>
        <mxCell id="DIcptHTm6M0oIrfopCmu-13" value="age" style="ellipse;whiteSpace=wrap;html=1;rotation=0;fillColor=#fff2cc;strokeColor=#d6b656;" vertex="1" parent="1">
          <mxGeometry x="610.43" y="65" width="70" height="25" as="geometry" />
        </mxCell>
        <mxCell id="DIcptHTm6M0oIrfopCmu-16" value="" style="endArrow=none;html=1;rounded=0;exitX=0.333;exitY=0.05;exitDx=0;exitDy=0;exitPerimeter=0;" edge="1" parent="1" source="DIcptHTm6M0oIrfopCmu-1" target="DIcptHTm6M0oIrfopCmu-10">
          <mxGeometry width="50" height="50" relative="1" as="geometry">
            <mxPoint x="590" y="140" as="sourcePoint" />
            <mxPoint x="640" y="90" as="targetPoint" />
          </mxGeometry>
        </mxCell>
        <mxCell id="DIcptHTm6M0oIrfopCmu-17" value="" style="endArrow=none;html=1;rounded=0;" edge="1" parent="1" target="DIcptHTm6M0oIrfopCmu-13">
          <mxGeometry width="50" height="50" relative="1" as="geometry">
            <mxPoint x="660" y="130" as="sourcePoint" />
            <mxPoint x="594.9223492590609" y="102.33288287465689" as="targetPoint" />
          </mxGeometry>
        </mxCell>
        <mxCell id="DIcptHTm6M0oIrfopCmu-18" value="" style="endArrow=none;html=1;rounded=0;entryX=1;entryY=1;entryDx=0;entryDy=0;" edge="1" parent="1" source="DIcptHTm6M0oIrfopCmu-1" target="DIcptHTm6M0oIrfopCmu-11">
          <mxGeometry width="50" height="50" relative="1" as="geometry">
            <mxPoint x="669.9699999999998" y="152" as="sourcePoint" />
            <mxPoint x="604.9223492590609" y="112.33288287465689" as="targetPoint" />
          </mxGeometry>
        </mxCell>
        <mxCell id="DIcptHTm6M0oIrfopCmu-19" value="" style="endArrow=none;html=1;rounded=0;exitX=1;exitY=0;exitDx=0;exitDy=0;entryX=0.286;entryY=1.033;entryDx=0;entryDy=0;entryPerimeter=0;" edge="1" parent="1" source="DIcptHTm6M0oIrfopCmu-1" target="DIcptHTm6M0oIrfopCmu-12">
          <mxGeometry width="50" height="50" relative="1" as="geometry">
            <mxPoint x="679.9699999999998" y="162" as="sourcePoint" />
            <mxPoint x="614.9223492590609" y="122.33288287465689" as="targetPoint" />
          </mxGeometry>
        </mxCell>
        <mxCell id="DIcptHTm6M0oIrfopCmu-20" value="id" style="ellipse;whiteSpace=wrap;html=1;fillColor=#fff2cc;strokeColor=#d6b656;" vertex="1" parent="1">
          <mxGeometry x="190" y="67.5" width="70" height="30" as="geometry" />
        </mxCell>
        <mxCell id="DIcptHTm6M0oIrfopCmu-22" value="name" style="ellipse;whiteSpace=wrap;html=1;fillColor=#fff2cc;strokeColor=#d6b656;" vertex="1" parent="1">
          <mxGeometry x="270" y="67.5" width="70" height="30" as="geometry" />
        </mxCell>
        <mxCell id="DIcptHTm6M0oIrfopCmu-23" value="manager" style="ellipse;whiteSpace=wrap;html=1;rotation=0;fillColor=#fff2cc;strokeColor=#d6b656;" vertex="1" parent="1">
          <mxGeometry x="354.99999999999994" y="70" width="70" height="25" as="geometry" />
        </mxCell>
        <mxCell id="DIcptHTm6M0oIrfopCmu-24" value="" style="endArrow=none;html=1;rounded=0;exitX=0.629;exitY=-0.025;exitDx=0;exitDy=0;exitPerimeter=0;entryX=0.357;entryY=1.2;entryDx=0;entryDy=0;entryPerimeter=0;" edge="1" parent="1" source="DIcptHTm6M0oIrfopCmu-2" target="DIcptHTm6M0oIrfopCmu-23">
          <mxGeometry width="50" height="50" relative="1" as="geometry">
            <mxPoint x="350" y="150" as="sourcePoint" />
            <mxPoint x="400" y="100" as="targetPoint" />
          </mxGeometry>
        </mxCell>
        <mxCell id="DIcptHTm6M0oIrfopCmu-25" value="" style="endArrow=none;html=1;rounded=0;entryX=0.671;entryY=1.017;entryDx=0;entryDy=0;entryPerimeter=0;exitX=0.419;exitY=-0.05;exitDx=0;exitDy=0;exitPerimeter=0;" edge="1" parent="1" source="DIcptHTm6M0oIrfopCmu-2" target="DIcptHTm6M0oIrfopCmu-22">
          <mxGeometry width="50" height="50" relative="1" as="geometry">
            <mxPoint x="310" y="135" as="sourcePoint" />
            <mxPoint x="330.63" y="95" as="targetPoint" />
          </mxGeometry>
        </mxCell>
        <mxCell id="DIcptHTm6M0oIrfopCmu-26" value="" style="endArrow=none;html=1;rounded=0;exitX=0.25;exitY=0;exitDx=0;exitDy=0;entryX=0.643;entryY=1.017;entryDx=0;entryDy=0;entryPerimeter=0;" edge="1" parent="1" source="DIcptHTm6M0oIrfopCmu-2" target="DIcptHTm6M0oIrfopCmu-20">
          <mxGeometry width="50" height="50" relative="1" as="geometry">
            <mxPoint x="288.75" y="137.5" as="sourcePoint" />
            <mxPoint x="340" y="97.5" as="targetPoint" />
          </mxGeometry>
        </mxCell>
        <mxCell id="DIcptHTm6M0oIrfopCmu-27" value="id" style="ellipse;whiteSpace=wrap;html=1;fillColor=#fff2cc;strokeColor=#d6b656;" vertex="1" parent="1">
          <mxGeometry x="250" y="460" width="50" height="30" as="geometry" />
        </mxCell>
        <mxCell id="DIcptHTm6M0oIrfopCmu-28" value="name" style="ellipse;whiteSpace=wrap;html=1;fillColor=#fff2cc;strokeColor=#d6b656;" vertex="1" parent="1">
          <mxGeometry x="310" y="462.5" width="40" height="30" as="geometry" />
        </mxCell>
        <mxCell id="DIcptHTm6M0oIrfopCmu-29" value="age" style="ellipse;whiteSpace=wrap;html=1;rotation=0;fillColor=#fff2cc;strokeColor=#d6b656;" vertex="1" parent="1">
          <mxGeometry x="355" y="465" width="55" height="25" as="geometry" />
        </mxCell>
        <mxCell id="DIcptHTm6M0oIrfopCmu-38" value="bio" style="ellipse;whiteSpace=wrap;html=1;rotation=0;fillColor=#fff2cc;strokeColor=#d6b656;" vertex="1" parent="1">
          <mxGeometry x="420" y="465" width="55" height="25" as="geometry" />
        </mxCell>
        <mxCell id="DIcptHTm6M0oIrfopCmu-39" value="" style="endArrow=none;html=1;rounded=0;entryX=0.5;entryY=1;entryDx=0;entryDy=0;" edge="1" parent="1" target="DIcptHTm6M0oIrfopCmu-4">
          <mxGeometry width="50" height="50" relative="1" as="geometry">
            <mxPoint x="320" y="460" as="sourcePoint" />
            <mxPoint x="355" y="390" as="targetPoint" />
          </mxGeometry>
        </mxCell>
        <mxCell id="DIcptHTm6M0oIrfopCmu-40" value="" style="endArrow=none;html=1;rounded=0;entryX=0.25;entryY=1;entryDx=0;entryDy=0;exitX=0.5;exitY=0;exitDx=0;exitDy=0;" edge="1" parent="1" source="DIcptHTm6M0oIrfopCmu-27" target="DIcptHTm6M0oIrfopCmu-4">
          <mxGeometry width="50" height="50" relative="1" as="geometry">
            <mxPoint x="250" y="450" as="sourcePoint" />
            <mxPoint x="300" y="400" as="targetPoint" />
            <Array as="points" />
          </mxGeometry>
        </mxCell>
        <mxCell id="DIcptHTm6M0oIrfopCmu-41" value="" style="endArrow=none;html=1;rounded=0;entryX=0.63;entryY=0.975;entryDx=0;entryDy=0;exitX=0;exitY=0;exitDx=0;exitDy=0;entryPerimeter=0;" edge="1" parent="1" source="DIcptHTm6M0oIrfopCmu-29" target="DIcptHTm6M0oIrfopCmu-4">
          <mxGeometry width="50" height="50" relative="1" as="geometry">
            <mxPoint x="285" y="470" as="sourcePoint" />
            <mxPoint x="315" y="400" as="targetPoint" />
            <Array as="points" />
          </mxGeometry>
        </mxCell>
        <mxCell id="DIcptHTm6M0oIrfopCmu-42" value="" style="endArrow=none;html=1;rounded=0;entryX=0.75;entryY=1;entryDx=0;entryDy=0;exitX=0.273;exitY=-0.04;exitDx=0;exitDy=0;exitPerimeter=0;" edge="1" parent="1" source="DIcptHTm6M0oIrfopCmu-38" target="DIcptHTm6M0oIrfopCmu-4">
          <mxGeometry width="50" height="50" relative="1" as="geometry">
            <mxPoint x="295" y="480" as="sourcePoint" />
            <mxPoint x="325" y="410" as="targetPoint" />
            <Array as="points" />
          </mxGeometry>
        </mxCell>
        <mxCell id="DIcptHTm6M0oIrfopCmu-43" value="id" style="ellipse;whiteSpace=wrap;html=1;fillColor=#fff2cc;strokeColor=#d6b656;" vertex="1" parent="1">
          <mxGeometry x="560.4300000000001" y="450" width="50" height="30" as="geometry" />
        </mxCell>
        <mxCell id="DIcptHTm6M0oIrfopCmu-44" value="name" style="ellipse;whiteSpace=wrap;html=1;fillColor=#fff2cc;strokeColor=#d6b656;" vertex="1" parent="1">
          <mxGeometry x="610.4300000000001" y="447.5" width="40" height="30" as="geometry" />
        </mxCell>
        <mxCell id="DIcptHTm6M0oIrfopCmu-46" value="bio" style="ellipse;whiteSpace=wrap;html=1;rotation=0;fillColor=#fff2cc;strokeColor=#d6b656;" vertex="1" parent="1">
          <mxGeometry x="665" y="455" width="55" height="25" as="geometry" />
        </mxCell>
        <mxCell id="DIcptHTm6M0oIrfopCmu-47" value="" style="endArrow=none;html=1;rounded=0;entryX=0.5;entryY=1;entryDx=0;entryDy=0;exitX=0.5;exitY=0;exitDx=0;exitDy=0;" edge="1" parent="1" source="DIcptHTm6M0oIrfopCmu-44">
          <mxGeometry width="50" height="50" relative="1" as="geometry">
            <mxPoint x="645" y="460" as="sourcePoint" />
            <mxPoint x="655" y="390" as="targetPoint" />
          </mxGeometry>
        </mxCell>
        <mxCell id="DIcptHTm6M0oIrfopCmu-48" value="" style="endArrow=none;html=1;rounded=0;entryX=0.25;entryY=1;entryDx=0;entryDy=0;exitX=0.5;exitY=0;exitDx=0;exitDy=0;" edge="1" parent="1" source="DIcptHTm6M0oIrfopCmu-43" target="DIcptHTm6M0oIrfopCmu-3">
          <mxGeometry width="50" height="50" relative="1" as="geometry">
            <mxPoint x="260" y="460" as="sourcePoint" />
            <mxPoint x="315" y="400" as="targetPoint" />
            <Array as="points" />
          </mxGeometry>
        </mxCell>
        <mxCell id="DIcptHTm6M0oIrfopCmu-49" value="" style="endArrow=none;html=1;rounded=0;exitX=0.273;exitY=-0.04;exitDx=0;exitDy=0;exitPerimeter=0;entryX=0.69;entryY=0.975;entryDx=0;entryDy=0;entryPerimeter=0;" edge="1" parent="1" source="DIcptHTm6M0oIrfopCmu-46" target="DIcptHTm6M0oIrfopCmu-3">
          <mxGeometry width="50" height="50" relative="1" as="geometry">
            <mxPoint x="305" y="490" as="sourcePoint" />
            <mxPoint x="685" y="400" as="targetPoint" />
            <Array as="points" />
          </mxGeometry>
        </mxCell>
        <mxCell id="DIcptHTm6M0oIrfopCmu-50" value="id" style="ellipse;whiteSpace=wrap;html=1;fillColor=#fff2cc;strokeColor=#d6b656;" vertex="1" parent="1">
          <mxGeometry x="780" y="337.5" width="40" height="30" as="geometry" />
        </mxCell>
        <mxCell id="DIcptHTm6M0oIrfopCmu-51" value="name" style="ellipse;whiteSpace=wrap;html=1;fillColor=#fff2cc;strokeColor=#d6b656;" vertex="1" parent="1">
          <mxGeometry x="830.0000000000001" y="337.5" width="40" height="30" as="geometry" />
        </mxCell>
        <mxCell id="DIcptHTm6M0oIrfopCmu-52" value="pass" style="ellipse;whiteSpace=wrap;html=1;rotation=0;fillColor=#fff2cc;strokeColor=#d6b656;" vertex="1" parent="1">
          <mxGeometry x="880" y="340" width="55" height="25" as="geometry" />
        </mxCell>
        <mxCell id="DIcptHTm6M0oIrfopCmu-53" value="" style="endArrow=none;html=1;rounded=0;entryX=0.5;entryY=1;entryDx=0;entryDy=0;exitX=0.5;exitY=0;exitDx=0;exitDy=0;" edge="1" parent="1" source="DIcptHTm6M0oIrfopCmu-51" target="DIcptHTm6M0oIrfopCmu-9">
          <mxGeometry width="50" height="50" relative="1" as="geometry">
            <mxPoint x="845" y="350" as="sourcePoint" />
            <mxPoint x="855" y="280" as="targetPoint" />
          </mxGeometry>
        </mxCell>
        <mxCell id="DIcptHTm6M0oIrfopCmu-54" value="" style="endArrow=none;html=1;rounded=0;entryX=0.25;entryY=1;entryDx=0;entryDy=0;exitX=0.5;exitY=0;exitDx=0;exitDy=0;" edge="1" parent="1" source="DIcptHTm6M0oIrfopCmu-50">
          <mxGeometry width="50" height="50" relative="1" as="geometry">
            <mxPoint x="460" y="350" as="sourcePoint" />
            <mxPoint x="845" y="280" as="targetPoint" />
            <Array as="points" />
          </mxGeometry>
        </mxCell>
        <mxCell id="DIcptHTm6M0oIrfopCmu-55" value="" style="endArrow=none;html=1;rounded=0;entryX=0.75;entryY=1;entryDx=0;entryDy=0;exitX=0.5;exitY=0;exitDx=0;exitDy=0;" edge="1" parent="1" source="DIcptHTm6M0oIrfopCmu-52" target="DIcptHTm6M0oIrfopCmu-9">
          <mxGeometry width="50" height="50" relative="1" as="geometry">
            <mxPoint x="850" y="347.5" as="sourcePoint" />
            <mxPoint x="865" y="290" as="targetPoint" />
          </mxGeometry>
        </mxCell>
        <mxCell id="DIcptHTm6M0oIrfopCmu-56" value="id" style="ellipse;whiteSpace=wrap;html=1;fillColor=#fff2cc;strokeColor=#d6b656;" vertex="1" parent="1">
          <mxGeometry x="120.00000000000006" y="600" width="50" height="30" as="geometry" />
        </mxCell>
        <mxCell id="DIcptHTm6M0oIrfopCmu-57" value="t/f" style="ellipse;whiteSpace=wrap;html=1;fillColor=#fff2cc;strokeColor=#d6b656;" vertex="1" parent="1">
          <mxGeometry x="180.00000000000006" y="600" width="40" height="30" as="geometry" />
        </mxCell>
        <mxCell id="DIcptHTm6M0oIrfopCmu-58" value="choice" style="ellipse;whiteSpace=wrap;html=1;rotation=0;fillColor=#fff2cc;strokeColor=#d6b656;" vertex="1" parent="1">
          <mxGeometry x="225" y="605" width="55" height="25" as="geometry" />
        </mxCell>
        <mxCell id="DIcptHTm6M0oIrfopCmu-59" value="" style="endArrow=none;html=1;rounded=0;entryX=0.5;entryY=1;entryDx=0;entryDy=0;exitX=0.5;exitY=0;exitDx=0;exitDy=0;" edge="1" parent="1" source="DIcptHTm6M0oIrfopCmu-57" target="DIcptHTm6M0oIrfopCmu-8">
          <mxGeometry width="50" height="50" relative="1" as="geometry">
            <mxPoint x="655" y="470" as="sourcePoint" />
            <mxPoint x="665" y="400" as="targetPoint" />
          </mxGeometry>
        </mxCell>
        <mxCell id="DIcptHTm6M0oIrfopCmu-60" value="" style="endArrow=none;html=1;rounded=0;entryX=0.25;entryY=1;entryDx=0;entryDy=0;exitX=0.5;exitY=0;exitDx=0;exitDy=0;" edge="1" parent="1" source="DIcptHTm6M0oIrfopCmu-56" target="DIcptHTm6M0oIrfopCmu-8">
          <mxGeometry width="50" height="50" relative="1" as="geometry">
            <mxPoint x="270" y="470" as="sourcePoint" />
            <mxPoint x="655" y="400" as="targetPoint" />
            <Array as="points" />
          </mxGeometry>
        </mxCell>
        <mxCell id="DIcptHTm6M0oIrfopCmu-61" value="" style="endArrow=none;html=1;rounded=0;exitX=0.273;exitY=-0.04;exitDx=0;exitDy=0;exitPerimeter=0;entryX=0.75;entryY=1;entryDx=0;entryDy=0;" edge="1" parent="1" source="DIcptHTm6M0oIrfopCmu-58" target="DIcptHTm6M0oIrfopCmu-8">
          <mxGeometry width="50" height="50" relative="1" as="geometry">
            <mxPoint x="315" y="500" as="sourcePoint" />
            <mxPoint x="699" y="399" as="targetPoint" />
            <Array as="points" />
          </mxGeometry>
        </mxCell>
        <mxCell id="DIcptHTm6M0oIrfopCmu-62" value="" style="endArrow=none;html=1;rounded=0;entryX=0.644;entryY=0.975;entryDx=0;entryDy=0;entryPerimeter=0;exitX=0;exitY=0;exitDx=0;exitDy=0;" edge="1" parent="1" source="DIcptHTm6M0oIrfopCmu-67" target="DIcptHTm6M0oIrfopCmu-5">
          <mxGeometry width="50" height="50" relative="1" as="geometry">
            <mxPoint x="530" y="570" as="sourcePoint" />
            <mxPoint x="205" y="550" as="targetPoint" />
          </mxGeometry>
        </mxCell>
        <mxCell id="DIcptHTm6M0oIrfopCmu-63" value="" style="endArrow=none;html=1;rounded=0;entryX=0.25;entryY=1;entryDx=0;entryDy=0;exitX=0.66;exitY=0;exitDx=0;exitDy=0;exitPerimeter=0;" edge="1" parent="1" source="DIcptHTm6M0oIrfopCmu-65" target="DIcptHTm6M0oIrfopCmu-5">
          <mxGeometry width="50" height="50" relative="1" as="geometry">
            <mxPoint x="580" y="570" as="sourcePoint" />
            <mxPoint x="182.5" y="550" as="targetPoint" />
            <Array as="points" />
          </mxGeometry>
        </mxCell>
        <mxCell id="DIcptHTm6M0oIrfopCmu-64" value="" style="endArrow=none;html=1;rounded=0;entryX=0.5;entryY=1;entryDx=0;entryDy=0;exitX=0.5;exitY=0;exitDx=0;exitDy=0;" edge="1" parent="1" source="DIcptHTm6M0oIrfopCmu-66" target="DIcptHTm6M0oIrfopCmu-5">
          <mxGeometry width="50" height="50" relative="1" as="geometry">
            <mxPoint x="640" y="590" as="sourcePoint" />
            <mxPoint x="227.5" y="550" as="targetPoint" />
            <Array as="points" />
          </mxGeometry>
        </mxCell>
        <mxCell id="DIcptHTm6M0oIrfopCmu-65" value="id" style="ellipse;whiteSpace=wrap;html=1;fillColor=#fff2cc;strokeColor=#d6b656;" vertex="1" parent="1">
          <mxGeometry x="540.0000000000001" y="580" width="50" height="30" as="geometry" />
        </mxCell>
        <mxCell id="DIcptHTm6M0oIrfopCmu-66" value="degree" style="ellipse;whiteSpace=wrap;html=1;fillColor=#fff2cc;strokeColor=#d6b656;" vertex="1" parent="1">
          <mxGeometry x="600.0000000000001" y="580" width="40" height="30" as="geometry" />
        </mxCell>
        <mxCell id="DIcptHTm6M0oIrfopCmu-67" value="ques" style="ellipse;whiteSpace=wrap;html=1;fillColor=#fff2cc;strokeColor=#d6b656;" vertex="1" parent="1">
          <mxGeometry x="650.43" y="580" width="50" height="30" as="geometry" />
        </mxCell>
        <mxCell id="DIcptHTm6M0oIrfopCmu-68" value="typr" style="ellipse;whiteSpace=wrap;html=1;fillColor=#fff2cc;strokeColor=#d6b656;" vertex="1" parent="1">
          <mxGeometry x="700.43" y="580" width="40" height="30" as="geometry" />
        </mxCell>
        <mxCell id="DIcptHTm6M0oIrfopCmu-69" value="" style="endArrow=none;html=1;rounded=0;exitX=0.5;exitY=0;exitDx=0;exitDy=0;entryX=0.75;entryY=1;entryDx=0;entryDy=0;" edge="1" parent="1" source="DIcptHTm6M0oIrfopCmu-68" target="DIcptHTm6M0oIrfopCmu-5">
          <mxGeometry width="50" height="50" relative="1" as="geometry">
            <mxPoint x="583" y="590" as="sourcePoint" />
            <mxPoint x="650" y="550" as="targetPoint" />
            <Array as="points" />
          </mxGeometry>
        </mxCell>
        <mxCell id="DIcptHTm6M0oIrfopCmu-80" value="studAnswers" style="rounded=0;whiteSpace=wrap;html=1;fillColor=#d5e8d4;strokeColor=#82b366;" vertex="1" parent="1">
          <mxGeometry x="-180" y="230" width="110" height="40" as="geometry" />
        </mxCell>
        <mxCell id="DIcptHTm6M0oIrfopCmu-81" value="id" style="ellipse;whiteSpace=wrap;html=1;fillColor=#fff2cc;strokeColor=#d6b656;" vertex="1" parent="1">
          <mxGeometry x="-199.99999999999994" y="150" width="50" height="30" as="geometry" />
        </mxCell>
        <mxCell id="DIcptHTm6M0oIrfopCmu-82" value="degree" style="ellipse;whiteSpace=wrap;html=1;fillColor=#fff2cc;strokeColor=#d6b656;" vertex="1" parent="1">
          <mxGeometry x="-140" y="150" width="50" height="30" as="geometry" />
        </mxCell>
        <mxCell id="DIcptHTm6M0oIrfopCmu-83" value="answer" style="ellipse;whiteSpace=wrap;html=1;rotation=0;fillColor=#fff2cc;strokeColor=#d6b656;" vertex="1" parent="1">
          <mxGeometry x="-90" y="155" width="55" height="25" as="geometry" />
        </mxCell>
        <mxCell id="DIcptHTm6M0oIrfopCmu-84" value="" style="endArrow=none;html=1;rounded=0;exitX=0.682;exitY=0.025;exitDx=0;exitDy=0;exitPerimeter=0;" edge="1" parent="1" source="DIcptHTm6M0oIrfopCmu-80">
          <mxGeometry width="50" height="50" relative="1" as="geometry">
            <mxPoint x="-110" y="220" as="sourcePoint" />
            <mxPoint x="-80" y="180" as="targetPoint" />
          </mxGeometry>
        </mxCell>
        <mxCell id="DIcptHTm6M0oIrfopCmu-85" value="" style="endArrow=none;html=1;rounded=0;exitX=0.5;exitY=0;exitDx=0;exitDy=0;" edge="1" parent="1" source="DIcptHTm6M0oIrfopCmu-80">
          <mxGeometry width="50" height="50" relative="1" as="geometry">
            <mxPoint x="-160" y="220" as="sourcePoint" />
            <mxPoint x="-120" y="180" as="targetPoint" />
          </mxGeometry>
        </mxCell>
        <mxCell id="DIcptHTm6M0oIrfopCmu-86" value="" style="endArrow=none;html=1;rounded=0;exitX=0.25;exitY=0;exitDx=0;exitDy=0;" edge="1" parent="1" source="DIcptHTm6M0oIrfopCmu-80">
          <mxGeometry width="50" height="50" relative="1" as="geometry">
            <mxPoint x="-220" y="230" as="sourcePoint" />
            <mxPoint x="-170" y="180" as="targetPoint" />
          </mxGeometry>
        </mxCell>
        <mxCell id="DIcptHTm6M0oIrfopCmu-87" value="id" style="ellipse;whiteSpace=wrap;html=1;fillColor=#fff2cc;strokeColor=#d6b656;" vertex="1" parent="1">
          <mxGeometry x="-34.99999999999994" y="70" width="50" height="30" as="geometry" />
        </mxCell>
        <mxCell id="DIcptHTm6M0oIrfopCmu-88" value="degree" style="ellipse;whiteSpace=wrap;html=1;fillColor=#fff2cc;strokeColor=#d6b656;" vertex="1" parent="1">
          <mxGeometry x="25" y="67.5" width="50" height="30" as="geometry" />
        </mxCell>
        <mxCell id="DIcptHTm6M0oIrfopCmu-89" value="score" style="ellipse;whiteSpace=wrap;html=1;rotation=0;fillColor=#fff2cc;strokeColor=#d6b656;" vertex="1" parent="1">
          <mxGeometry x="75" y="72.5" width="55" height="25" as="geometry" />
        </mxCell>
        <mxCell id="DIcptHTm6M0oIrfopCmu-90" value="" style="endArrow=none;html=1;rounded=0;exitX=0.433;exitY=0.025;exitDx=0;exitDy=0;exitPerimeter=0;" edge="1" parent="1" source="DIcptHTm6M0oIrfopCmu-7">
          <mxGeometry width="50" height="50" relative="1" as="geometry">
            <mxPoint x="40" y="140" as="sourcePoint" />
            <mxPoint x="50" y="100" as="targetPoint" />
          </mxGeometry>
        </mxCell>
        <mxCell id="DIcptHTm6M0oIrfopCmu-91" value="" style="endArrow=none;html=1;rounded=0;exitX=0.25;exitY=0;exitDx=0;exitDy=0;" edge="1" parent="1" source="DIcptHTm6M0oIrfopCmu-7">
          <mxGeometry width="50" height="50" relative="1" as="geometry">
            <mxPoint x="12.5" y="140" as="sourcePoint" />
            <mxPoint y="100" as="targetPoint" />
          </mxGeometry>
        </mxCell>
        <mxCell id="DIcptHTm6M0oIrfopCmu-93" value="" style="endArrow=none;html=1;rounded=0;exitX=0.589;exitY=-0.05;exitDx=0;exitDy=0;exitPerimeter=0;" edge="1" parent="1" source="DIcptHTm6M0oIrfopCmu-7">
          <mxGeometry width="50" height="50" relative="1" as="geometry">
            <mxPoint x="42.5" y="150" as="sourcePoint" />
            <mxPoint x="100" y="100" as="targetPoint" />
          </mxGeometry>
        </mxCell>
        <mxCell id="DIcptHTm6M0oIrfopCmu-95" value="study" style="rhombus;whiteSpace=wrap;html=1;fillColor=#B5739D;" vertex="1" parent="1">
          <mxGeometry x="645" y="230" width="50" height="55" as="geometry" />
        </mxCell>
        <mxCell id="DIcptHTm6M0oIrfopCmu-97" value="teach" style="rhombus;whiteSpace=wrap;html=1;fillColor=#B5739D;" vertex="1" parent="1">
          <mxGeometry x="470" y="340" width="50" height="65" as="geometry" />
        </mxCell>
        <mxCell id="DIcptHTm6M0oIrfopCmu-98" value="belong" style="rhombus;whiteSpace=wrap;html=1;fillColor=#B5739D;" vertex="1" parent="1">
          <mxGeometry x="250" y="240" width="50" height="65" as="geometry" />
        </mxCell>
        <mxCell id="DIcptHTm6M0oIrfopCmu-99" value="belong" style="rhombus;whiteSpace=wrap;html=1;fillColor=#B5739D;" vertex="1" parent="1">
          <mxGeometry x="475" y="136.25" width="50" height="47.5" as="geometry" />
        </mxCell>
        <mxCell id="DIcptHTm6M0oIrfopCmu-100" value="has" style="rhombus;whiteSpace=wrap;html=1;fillColor=#B5739D;" vertex="1" parent="1">
          <mxGeometry x="820" y="155" width="50" height="65" as="geometry" />
        </mxCell>
        <mxCell id="DIcptHTm6M0oIrfopCmu-101" value="has" style="rhombus;whiteSpace=wrap;html=1;fillColor=#B5739D;" vertex="1" parent="1">
          <mxGeometry x="375" y="605" width="50" height="65" as="geometry" />
        </mxCell>
        <mxCell id="DIcptHTm6M0oIrfopCmu-102" value="has" style="rhombus;whiteSpace=wrap;html=1;fillColor=#B5739D;" vertex="1" parent="1">
          <mxGeometry x="375" y="525" width="50" height="65" as="geometry" />
        </mxCell>
        <mxCell id="DIcptHTm6M0oIrfopCmu-103" value="has" style="rhombus;whiteSpace=wrap;html=1;fillColor=#B5739D;" vertex="1" parent="1">
          <mxGeometry x="825" y="460" width="50" height="65" as="geometry" />
        </mxCell>
        <mxCell id="DIcptHTm6M0oIrfopCmu-104" value="" style="endArrow=none;html=1;rounded=0;exitX=0.5;exitY=0;exitDx=0;exitDy=0;" edge="1" parent="1" source="DIcptHTm6M0oIrfopCmu-95">
          <mxGeometry width="50" height="50" relative="1" as="geometry">
            <mxPoint x="667.5" y="230" as="sourcePoint" />
            <mxPoint x="670" y="170" as="targetPoint" />
          </mxGeometry>
        </mxCell>
        <mxCell id="DIcptHTm6M0oIrfopCmu-105" value="" style="endArrow=none;html=1;rounded=0;entryX=0;entryY=0.5;entryDx=0;entryDy=0;exitX=1;exitY=0.5;exitDx=0;exitDy=0;" edge="1" parent="1" source="DIcptHTm6M0oIrfopCmu-99" target="DIcptHTm6M0oIrfopCmu-1">
          <mxGeometry width="50" height="50" relative="1" as="geometry">
            <mxPoint x="530" y="160" as="sourcePoint" />
            <mxPoint x="682.02" y="183" as="targetPoint" />
          </mxGeometry>
        </mxCell>
        <mxCell id="DIcptHTm6M0oIrfopCmu-106" value="" style="endArrow=none;html=1;rounded=0;entryX=0;entryY=0.25;entryDx=0;entryDy=0;exitX=1;exitY=0.5;exitDx=0;exitDy=0;" edge="1" parent="1" source="DIcptHTm6M0oIrfopCmu-128" target="DIcptHTm6M0oIrfopCmu-1">
          <mxGeometry width="50" height="50" relative="1" as="geometry">
            <mxPoint x="690" y="250" as="sourcePoint" />
            <mxPoint x="692.02" y="193" as="targetPoint" />
          </mxGeometry>
        </mxCell>
        <mxCell id="DIcptHTm6M0oIrfopCmu-107" value="" style="endArrow=none;html=1;rounded=0;entryX=0;entryY=0.5;entryDx=0;entryDy=0;exitX=1;exitY=0.5;exitDx=0;exitDy=0;" edge="1" parent="1" source="DIcptHTm6M0oIrfopCmu-2" target="DIcptHTm6M0oIrfopCmu-99">
          <mxGeometry width="50" height="50" relative="1" as="geometry">
            <mxPoint x="700" y="260" as="sourcePoint" />
            <mxPoint x="702.02" y="203" as="targetPoint" />
          </mxGeometry>
        </mxCell>
        <mxCell id="DIcptHTm6M0oIrfopCmu-108" value="" style="endArrow=none;html=1;rounded=0;entryX=0;entryY=0.5;entryDx=0;entryDy=0;" edge="1" parent="1" target="DIcptHTm6M0oIrfopCmu-128">
          <mxGeometry width="50" height="50" relative="1" as="geometry">
            <mxPoint x="190" y="30" as="sourcePoint" />
            <mxPoint x="712.02" y="213" as="targetPoint" />
          </mxGeometry>
        </mxCell>
        <mxCell id="DIcptHTm6M0oIrfopCmu-109" value="" style="endArrow=none;html=1;rounded=0;entryX=0.5;entryY=1;entryDx=0;entryDy=0;exitX=0.25;exitY=0;exitDx=0;exitDy=0;" edge="1" parent="1" source="DIcptHTm6M0oIrfopCmu-9" target="DIcptHTm6M0oIrfopCmu-100">
          <mxGeometry width="50" height="50" relative="1" as="geometry">
            <mxPoint x="720" y="280" as="sourcePoint" />
            <mxPoint x="722.02" y="223" as="targetPoint" />
          </mxGeometry>
        </mxCell>
        <mxCell id="DIcptHTm6M0oIrfopCmu-110" value="" style="endArrow=none;html=1;rounded=0;entryX=1;entryY=0.5;entryDx=0;entryDy=0;exitX=0.5;exitY=0;exitDx=0;exitDy=0;" edge="1" parent="1" source="DIcptHTm6M0oIrfopCmu-100" target="DIcptHTm6M0oIrfopCmu-1">
          <mxGeometry width="50" height="50" relative="1" as="geometry">
            <mxPoint x="730" y="290" as="sourcePoint" />
            <mxPoint x="732.02" y="233" as="targetPoint" />
          </mxGeometry>
        </mxCell>
        <mxCell id="DIcptHTm6M0oIrfopCmu-111" value="" style="endArrow=none;html=1;rounded=0;entryX=0.5;entryY=1;entryDx=0;entryDy=0;exitX=0.5;exitY=0;exitDx=0;exitDy=0;" edge="1" parent="1" source="DIcptHTm6M0oIrfopCmu-3" target="DIcptHTm6M0oIrfopCmu-95">
          <mxGeometry width="50" height="50" relative="1" as="geometry">
            <mxPoint x="670" y="340" as="sourcePoint" />
            <mxPoint x="742.02" y="243" as="targetPoint" />
          </mxGeometry>
        </mxCell>
        <mxCell id="DIcptHTm6M0oIrfopCmu-112" value="" style="endArrow=none;html=1;rounded=0;exitX=1;exitY=0.25;exitDx=0;exitDy=0;" edge="1" parent="1" source="DIcptHTm6M0oIrfopCmu-7">
          <mxGeometry width="50" height="50" relative="1" as="geometry">
            <mxPoint x="720" y="280" as="sourcePoint" />
            <mxPoint x="190" y="30" as="targetPoint" />
          </mxGeometry>
        </mxCell>
        <mxCell id="DIcptHTm6M0oIrfopCmu-113" value="" style="endArrow=none;html=1;rounded=0;entryX=1;entryY=0.5;entryDx=0;entryDy=0;" edge="1" parent="1" target="DIcptHTm6M0oIrfopCmu-127">
          <mxGeometry width="50" height="50" relative="1" as="geometry">
            <mxPoint x="630" y="-40" as="sourcePoint" />
            <mxPoint x="620" y="-40" as="targetPoint" />
          </mxGeometry>
        </mxCell>
        <mxCell id="DIcptHTm6M0oIrfopCmu-114" value="" style="endArrow=none;html=1;rounded=0;exitX=0.644;exitY=-0.05;exitDx=0;exitDy=0;exitPerimeter=0;" edge="1" parent="1" source="DIcptHTm6M0oIrfopCmu-1">
          <mxGeometry width="50" height="50" relative="1" as="geometry">
            <mxPoint x="740" y="300" as="sourcePoint" />
            <mxPoint x="630" y="-40" as="targetPoint" />
          </mxGeometry>
        </mxCell>
        <mxCell id="DIcptHTm6M0oIrfopCmu-115" value="" style="endArrow=none;html=1;rounded=0;entryX=0;entryY=0.5;entryDx=0;entryDy=0;" edge="1" parent="1" target="DIcptHTm6M0oIrfopCmu-127">
          <mxGeometry width="50" height="50" relative="1" as="geometry">
            <mxPoint x="-250" y="-40" as="sourcePoint" />
            <mxPoint x="270" y="-110" as="targetPoint" />
          </mxGeometry>
        </mxCell>
        <mxCell id="DIcptHTm6M0oIrfopCmu-116" value="" style="endArrow=none;html=1;rounded=0;" edge="1" parent="1">
          <mxGeometry width="50" height="50" relative="1" as="geometry">
            <mxPoint x="-240" y="240" as="sourcePoint" />
            <mxPoint x="-250" y="-40" as="targetPoint" />
          </mxGeometry>
        </mxCell>
        <mxCell id="DIcptHTm6M0oIrfopCmu-117" value="" style="endArrow=none;html=1;rounded=0;exitX=0;exitY=0.25;exitDx=0;exitDy=0;" edge="1" parent="1" source="DIcptHTm6M0oIrfopCmu-80">
          <mxGeometry width="50" height="50" relative="1" as="geometry">
            <mxPoint x="-260" y="311" as="sourcePoint" />
            <mxPoint x="-240" y="240" as="targetPoint" />
          </mxGeometry>
        </mxCell>
        <mxCell id="DIcptHTm6M0oIrfopCmu-118" value="" style="endArrow=none;html=1;rounded=0;entryX=1;entryY=0.5;entryDx=0;entryDy=0;exitX=0;exitY=0.5;exitDx=0;exitDy=0;" edge="1" parent="1" source="DIcptHTm6M0oIrfopCmu-3" target="DIcptHTm6M0oIrfopCmu-97">
          <mxGeometry width="50" height="50" relative="1" as="geometry">
            <mxPoint x="780" y="340" as="sourcePoint" />
            <mxPoint x="782.02" y="283" as="targetPoint" />
          </mxGeometry>
        </mxCell>
        <mxCell id="DIcptHTm6M0oIrfopCmu-119" value="" style="endArrow=none;html=1;rounded=0;entryX=0;entryY=0.5;entryDx=0;entryDy=0;exitX=1;exitY=0.5;exitDx=0;exitDy=0;" edge="1" parent="1" source="DIcptHTm6M0oIrfopCmu-4" target="DIcptHTm6M0oIrfopCmu-97">
          <mxGeometry width="50" height="50" relative="1" as="geometry">
            <mxPoint x="790" y="350" as="sourcePoint" />
            <mxPoint x="792.02" y="293" as="targetPoint" />
          </mxGeometry>
        </mxCell>
        <mxCell id="DIcptHTm6M0oIrfopCmu-120" value="" style="endArrow=none;html=1;rounded=0;entryX=0.5;entryY=1;entryDx=0;entryDy=0;exitX=0.75;exitY=0;exitDx=0;exitDy=0;" edge="1" parent="1" source="DIcptHTm6M0oIrfopCmu-4" target="DIcptHTm6M0oIrfopCmu-124">
          <mxGeometry width="50" height="50" relative="1" as="geometry">
            <mxPoint x="360" y="340" as="sourcePoint" />
            <mxPoint x="422.02" y="280" as="targetPoint" />
          </mxGeometry>
        </mxCell>
        <mxCell id="DIcptHTm6M0oIrfopCmu-121" value="" style="endArrow=none;html=1;rounded=0;entryX=0.25;entryY=1;entryDx=0;entryDy=0;exitX=0.5;exitY=0;exitDx=0;exitDy=0;" edge="1" parent="1" source="DIcptHTm6M0oIrfopCmu-98" target="DIcptHTm6M0oIrfopCmu-2">
          <mxGeometry width="50" height="50" relative="1" as="geometry">
            <mxPoint x="260" y="257" as="sourcePoint" />
            <mxPoint x="262.02" y="200" as="targetPoint" />
          </mxGeometry>
        </mxCell>
        <mxCell id="DIcptHTm6M0oIrfopCmu-122" value="" style="endArrow=none;html=1;rounded=0;entryX=0.75;entryY=1;entryDx=0;entryDy=0;exitX=0.5;exitY=0;exitDx=0;exitDy=0;" edge="1" parent="1" source="DIcptHTm6M0oIrfopCmu-124" target="DIcptHTm6M0oIrfopCmu-2">
          <mxGeometry width="50" height="50" relative="1" as="geometry">
            <mxPoint x="410" y="270" as="sourcePoint" />
            <mxPoint x="412.02" y="213" as="targetPoint" />
          </mxGeometry>
        </mxCell>
        <mxCell id="DIcptHTm6M0oIrfopCmu-123" value="" style="endArrow=none;html=1;rounded=0;entryX=0.5;entryY=1;entryDx=0;entryDy=0;exitX=0;exitY=0;exitDx=0;exitDy=0;" edge="1" parent="1" source="DIcptHTm6M0oIrfopCmu-4" target="DIcptHTm6M0oIrfopCmu-98">
          <mxGeometry width="50" height="50" relative="1" as="geometry">
            <mxPoint x="250" y="362" as="sourcePoint" />
            <mxPoint x="252.01999999999998" y="305" as="targetPoint" />
          </mxGeometry>
        </mxCell>
        <mxCell id="DIcptHTm6M0oIrfopCmu-124" value="manage" style="rhombus;whiteSpace=wrap;html=1;fillColor=#B5739D;" vertex="1" parent="1">
          <mxGeometry x="350" y="240" width="50" height="65" as="geometry" />
        </mxCell>
        <mxCell id="DIcptHTm6M0oIrfopCmu-125" value="generate" style="rhombus;whiteSpace=wrap;html=1;fillColor=#B5739D;" vertex="1" parent="1">
          <mxGeometry x="130" y="340" width="60" height="62.5" as="geometry" />
        </mxCell>
        <mxCell id="DIcptHTm6M0oIrfopCmu-126" value="has" style="rhombus;whiteSpace=wrap;html=1;fillColor=#B5739D;" vertex="1" parent="1">
          <mxGeometry x="500" y="270" width="50" height="50" as="geometry" />
        </mxCell>
        <mxCell id="DIcptHTm6M0oIrfopCmu-127" value="answer" style="rhombus;whiteSpace=wrap;html=1;fillColor=#B5739D;" vertex="1" parent="1">
          <mxGeometry x="430" y="-65" width="50" height="55" as="geometry" />
        </mxCell>
        <mxCell id="DIcptHTm6M0oIrfopCmu-128" value="has" style="rhombus;whiteSpace=wrap;html=1;fillColor=#B5739D;" vertex="1" parent="1">
          <mxGeometry x="320" y="-20" width="50" height="60" as="geometry" />
        </mxCell>
        <mxCell id="DIcptHTm6M0oIrfopCmu-129" value="" style="endArrow=none;html=1;rounded=0;entryX=1;entryY=0.5;entryDx=0;entryDy=0;exitX=0;exitY=0.5;exitDx=0;exitDy=0;" edge="1" parent="1" source="DIcptHTm6M0oIrfopCmu-4" target="DIcptHTm6M0oIrfopCmu-125">
          <mxGeometry width="50" height="50" relative="1" as="geometry">
            <mxPoint x="260" y="372" as="sourcePoint" />
            <mxPoint x="262.02" y="315" as="targetPoint" />
          </mxGeometry>
        </mxCell>
        <mxCell id="DIcptHTm6M0oIrfopCmu-130" value="" style="endArrow=none;html=1;rounded=0;entryX=0;entryY=0.5;entryDx=0;entryDy=0;exitX=1;exitY=0;exitDx=0;exitDy=0;" edge="1" parent="1" source="DIcptHTm6M0oIrfopCmu-4" target="DIcptHTm6M0oIrfopCmu-126">
          <mxGeometry width="50" height="50" relative="1" as="geometry">
            <mxPoint x="193.99" y="390" as="sourcePoint" />
            <mxPoint x="196.01" y="333" as="targetPoint" />
          </mxGeometry>
        </mxCell>
        <mxCell id="DIcptHTm6M0oIrfopCmu-131" value="" style="endArrow=none;html=1;rounded=0;entryX=0.5;entryY=1;entryDx=0;entryDy=0;exitX=1;exitY=0.5;exitDx=0;exitDy=0;" edge="1" parent="1" source="DIcptHTm6M0oIrfopCmu-5" target="DIcptHTm6M0oIrfopCmu-103">
          <mxGeometry width="50" height="50" relative="1" as="geometry">
            <mxPoint x="-50" y="472.5" as="sourcePoint" />
            <mxPoint x="-40" y="412.5" as="targetPoint" />
          </mxGeometry>
        </mxCell>
        <mxCell id="DIcptHTm6M0oIrfopCmu-132" value="" style="endArrow=none;html=1;rounded=0;entryX=0.5;entryY=1;entryDx=0;entryDy=0;exitX=0.422;exitY=0.033;exitDx=0;exitDy=0;exitPerimeter=0;" edge="1" parent="1" source="DIcptHTm6M0oIrfopCmu-8" target="DIcptHTm6M0oIrfopCmu-125">
          <mxGeometry width="50" height="50" relative="1" as="geometry">
            <mxPoint x="160" y="510" as="sourcePoint" />
            <mxPoint y="320" as="targetPoint" />
          </mxGeometry>
        </mxCell>
        <mxCell id="DIcptHTm6M0oIrfopCmu-133" value="" style="endArrow=none;html=1;rounded=0;entryX=0;entryY=0.5;entryDx=0;entryDy=0;exitX=1;exitY=0.5;exitDx=0;exitDy=0;" edge="1" parent="1" source="DIcptHTm6M0oIrfopCmu-126" target="DIcptHTm6M0oIrfopCmu-9">
          <mxGeometry width="50" height="50" relative="1" as="geometry">
            <mxPoint x="180" y="422" as="sourcePoint" />
            <mxPoint x="182.01999999999998" y="365" as="targetPoint" />
          </mxGeometry>
        </mxCell>
        <mxCell id="DIcptHTm6M0oIrfopCmu-134" value="" style="endArrow=none;html=1;rounded=0;entryX=1;entryY=1;entryDx=0;entryDy=0;exitX=0.5;exitY=0;exitDx=0;exitDy=0;" edge="1" parent="1" source="DIcptHTm6M0oIrfopCmu-103" target="DIcptHTm6M0oIrfopCmu-3">
          <mxGeometry width="50" height="50" relative="1" as="geometry">
            <mxPoint x="810" y="469.5" as="sourcePoint" />
            <mxPoint x="812.02" y="412.5" as="targetPoint" />
          </mxGeometry>
        </mxCell>
        <mxCell id="DIcptHTm6M0oIrfopCmu-135" value="has" style="rhombus;whiteSpace=wrap;html=1;fillColor=#B5739D;" vertex="1" parent="1">
          <mxGeometry x="-150" y="382.5" width="50" height="65" as="geometry" />
        </mxCell>
        <mxCell id="DIcptHTm6M0oIrfopCmu-137" value="belong" style="rhombus;whiteSpace=wrap;html=1;fillColor=#B5739D;" vertex="1" parent="1">
          <mxGeometry x="25" y="290" width="50" height="65" as="geometry" />
        </mxCell>
        <mxCell id="DIcptHTm6M0oIrfopCmu-139" value="" style="endArrow=none;html=1;rounded=0;entryX=0.5;entryY=1;entryDx=0;entryDy=0;exitX=0.5;exitY=0;exitDx=0;exitDy=0;" edge="1" parent="1" source="DIcptHTm6M0oIrfopCmu-137" target="DIcptHTm6M0oIrfopCmu-7">
          <mxGeometry width="50" height="50" relative="1" as="geometry">
            <mxPoint x="-260" y="527.5" as="sourcePoint" />
            <mxPoint x="-210" y="477.5" as="targetPoint" />
          </mxGeometry>
        </mxCell>
        <mxCell id="DIcptHTm6M0oIrfopCmu-140" value="" style="endArrow=none;html=1;rounded=0;entryX=0;entryY=0.5;entryDx=0;entryDy=0;exitX=1;exitY=0.75;exitDx=0;exitDy=0;" edge="1" parent="1" source="DIcptHTm6M0oIrfopCmu-8" target="DIcptHTm6M0oIrfopCmu-101">
          <mxGeometry width="50" height="50" relative="1" as="geometry">
            <mxPoint x="-140" y="465" as="sourcePoint" />
            <mxPoint x="-90" y="415" as="targetPoint" />
          </mxGeometry>
        </mxCell>
        <mxCell id="DIcptHTm6M0oIrfopCmu-141" value="" style="endArrow=none;html=1;rounded=0;entryX=0;entryY=0.5;entryDx=0;entryDy=0;exitX=1;exitY=0.5;exitDx=0;exitDy=0;" edge="1" parent="1" source="DIcptHTm6M0oIrfopCmu-101" target="DIcptHTm6M0oIrfopCmu-5">
          <mxGeometry width="50" height="50" relative="1" as="geometry">
            <mxPoint x="-130" y="475" as="sourcePoint" />
            <mxPoint x="-80" y="425" as="targetPoint" />
          </mxGeometry>
        </mxCell>
        <mxCell id="DIcptHTm6M0oIrfopCmu-142" value="" style="endArrow=none;html=1;rounded=0;entryX=0;entryY=0.5;entryDx=0;entryDy=0;exitX=1;exitY=0.5;exitDx=0;exitDy=0;" edge="1" parent="1" source="DIcptHTm6M0oIrfopCmu-8" target="DIcptHTm6M0oIrfopCmu-102">
          <mxGeometry width="50" height="50" relative="1" as="geometry">
            <mxPoint x="-120" y="485" as="sourcePoint" />
            <mxPoint x="-70" y="435" as="targetPoint" />
          </mxGeometry>
        </mxCell>
        <mxCell id="DIcptHTm6M0oIrfopCmu-143" value="" style="endArrow=none;html=1;rounded=0;entryX=0;entryY=1;entryDx=0;entryDy=0;exitX=1;exitY=0.5;exitDx=0;exitDy=0;" edge="1" parent="1" source="DIcptHTm6M0oIrfopCmu-102" target="DIcptHTm6M0oIrfopCmu-3">
          <mxGeometry width="50" height="50" relative="1" as="geometry">
            <mxPoint x="-110" y="495" as="sourcePoint" />
            <mxPoint x="-60" y="445" as="targetPoint" />
          </mxGeometry>
        </mxCell>
        <mxCell id="DIcptHTm6M0oIrfopCmu-144" value="" style="endArrow=none;html=1;rounded=0;entryX=0.5;entryY=1;entryDx=0;entryDy=0;" edge="1" parent="1" target="DIcptHTm6M0oIrfopCmu-137">
          <mxGeometry width="50" height="50" relative="1" as="geometry">
            <mxPoint x="50" y="690" as="sourcePoint" />
            <mxPoint x="-200" y="487.5" as="targetPoint" />
          </mxGeometry>
        </mxCell>
        <mxCell id="DIcptHTm6M0oIrfopCmu-145" value="" style="endArrow=none;html=1;rounded=0;entryX=0.5;entryY=1;entryDx=0;entryDy=0;exitX=0;exitY=0.5;exitDx=0;exitDy=0;" edge="1" parent="1" source="DIcptHTm6M0oIrfopCmu-8" target="DIcptHTm6M0oIrfopCmu-135">
          <mxGeometry width="50" height="50" relative="1" as="geometry">
            <mxPoint x="-240" y="547.5" as="sourcePoint" />
            <mxPoint x="-190" y="497.5" as="targetPoint" />
          </mxGeometry>
        </mxCell>
        <mxCell id="DIcptHTm6M0oIrfopCmu-146" value="" style="endArrow=none;html=1;rounded=0;" edge="1" parent="1">
          <mxGeometry width="50" height="50" relative="1" as="geometry">
            <mxPoint x="50" y="690" as="sourcePoint" />
            <mxPoint x="920" y="690" as="targetPoint" />
          </mxGeometry>
        </mxCell>
        <mxCell id="DIcptHTm6M0oIrfopCmu-147" value="" style="endArrow=none;html=1;rounded=0;" edge="1" parent="1">
          <mxGeometry width="50" height="50" relative="1" as="geometry">
            <mxPoint x="920" y="690" as="sourcePoint" />
            <mxPoint x="920" y="420" as="targetPoint" />
          </mxGeometry>
        </mxCell>
        <mxCell id="DIcptHTm6M0oIrfopCmu-148" value="" style="endArrow=none;html=1;rounded=0;entryX=0.5;entryY=1;entryDx=0;entryDy=0;exitX=0.5;exitY=0;exitDx=0;exitDy=0;" edge="1" parent="1" source="DIcptHTm6M0oIrfopCmu-135" target="DIcptHTm6M0oIrfopCmu-80">
          <mxGeometry width="50" height="50" relative="1" as="geometry">
            <mxPoint x="-210" y="577.5" as="sourcePoint" />
            <mxPoint x="-160" y="527.5" as="targetPoint" />
          </mxGeometry>
        </mxCell>
        <mxCell id="DIcptHTm6M0oIrfopCmu-149" value="" style="endArrow=none;html=1;rounded=0;entryX=1;entryY=0.5;entryDx=0;entryDy=0;" edge="1" parent="1" target="DIcptHTm6M0oIrfopCmu-3">
          <mxGeometry width="50" height="50" relative="1" as="geometry">
            <mxPoint x="920" y="420" as="sourcePoint" />
            <mxPoint x="400" y="380" as="targetPoint" />
          </mxGeometry>
        </mxCell>
      </root>
    </mxGraphModel>
  </diagram>
</mxfile>
